
<svg xmlns="http://www.w3.org/2000/svg" xml:space="preserve" width="20.8812mm" height="3.4411mm" version="1.1" style="shape-rendering:geometricPrecision; text-rendering:geometricPrecision; image-rendering:optimizeQuality; fill-rule:evenodd; clip-rule:evenodd"
viewBox="0 0 424.93 70.03"
 xmlns:xodm="http://www.corel.com/coreldraw/odm/2003">
 <defs>
  <style type="text/css">
   <![CDATA[
    .fil7 {fill:#273155}
    .fil4 {fill:#149497;fill-rule:nonzero}
    .fil1 {fill:#1D538F;fill-rule:nonzero}
    .fil6 {fill:#273155;fill-rule:nonzero}
    .fil0 {fill:#9BDCDE;fill-rule:nonzero}
    .fil3 {fill:#FA5456;fill-rule:nonzero}
    .fil2 {fill:#FA8825;fill-rule:nonzero}
    .fil5 {fill:#FED942;fill-rule:nonzero}
   ]]>
  </style>
 </defs>
 <g id="Layer_x0020_1">
  <metadata id="CorelCorpID_0Corel-Layer"/>
  <g id="_2282650648064">
   <g>
    <path class="fil0" d="M78.11 9.12c0,-3.34 -2.71,-6.05 -6.05,-6.05 -3.34,0 -6.05,2.71 -6.05,6.05 0,3.34 2.71,6.05 6.05,6.05 3.34,0 6.05,-2.71 6.05,-6.05z"/>
    <path class="fil0" d="M12.1 62.73c0,-3.34 -2.71,-6.05 -6.05,-6.05 -3.34,0 -6.05,2.71 -6.05,6.05 0,3.34 2.71,6.05 6.05,6.05 3.34,0 6.05,-2.71 6.05,-6.05z"/>
    <path class="fil1" d="M49.42 0l-45.46 0c-2.19,0 -3.96,1.77 -3.96,3.96l0 7.66c0,2.19 1.77,3.96 3.96,3.96l45.46 0c3.18,0 5.76,-2.58 5.76,-5.76l0 -4.05c0,-3.18 -2.58,-5.77 -5.76,-5.77z"/>
    <path class="fil2" d="M73.7 54.45l-27.98 0c-3.18,0 -5.76,2.58 -5.76,5.76l0 4.05c0,3.18 2.58,5.76 5.76,5.76l27.98 0c2.14,0 3.88,-1.73 3.88,-3.88l0 -7.82c0,-2.14 -1.74,-3.87 -3.88,-3.87z"/>
    <path class="fil3" d="M37.15 19.15l-33.44 0c-2.05,0 -3.7,1.66 -3.7,3.7l0 6.96c0,2.05 1.66,3.7 3.7,3.7l33.44 0c3.01,0 5.44,-2.44 5.44,-5.44l0 -3.47c0,-3.01 -2.44,-5.45 -5.44,-5.45z"/>
    <path class="fil4" d="M75.05 22.46l-11.69 0c-2.35,0 -4.25,1.9 -4.25,4.25l0 1.33c0,2.35 1.9,4.25 4.25,4.25l11.69 0c1.69,0 3.06,-1.37 3.06,-3.06l0 -3.71c0,-1.69 -1.37,-3.06 -3.06,-3.06z"/>
    <path class="fil5" d="M73.07 37.93l-69.59 0c-1.92,0 -3.48,1.56 -3.48,3.49l0 5.85c0,1.92 1.56,3.48 3.48,3.48l69.59 0c2.78,0 5.04,-2.25 5.04,-5.04l0 -2.74c0,-2.78 -2.25,-5.04 -5.04,-5.04z"/>
   </g>
   <g>
    <g>
     <path class="fil6" d="M155.62 2.59l0 5.39c-3.76,-1.84 -7.24,-2.75 -10.4,-2.75 -4.05,0 -7.48,1.31 -10.26,3.92 -2.78,2.62 -4.16,5.83 -4.16,9.64 0,3.88 1.42,7.12 4.27,9.73 2.84,2.59 6.4,3.9 10.68,3.9 3.11,0 6.4,-0.97 9.88,-2.92l0 5.45c-3.16,1.68 -6.59,2.53 -10.29,2.53 -5.42,0 -10.04,-1.83 -13.88,-5.48 -3.85,-3.66 -5.77,-8.08 -5.77,-13.24 0,-5.07 1.89,-9.42 5.66,-13.03 3.78,-3.61 8.33,-5.42 13.66,-5.42 3.42,0 6.95,0.77 10.61,2.3z"/>
     <polygon class="fil6" points="162.13,1.41 166.9,1.41 166.9,31.57 178.25,31.57 178.25,36.34 162.13,36.34 "/>
     <polygon class="fil6" points="184.76,1.41 204.13,1.41 204.13,6.18 189.53,6.18 189.53,14.83 204.13,14.83 204.13,19.61 189.53,19.61 189.53,31.57 204.13,31.57 204.13,36.34 184.76,36.34 "/>
     <polygon class="fil6" points="227.01,0.06 243.5,36.34 238.53,36.34 227.01,11.04 215.6,36.34 210.64,36.34 "/>
     <polygon class="fil6" points="250.01,0.01 275.84,26.53 275.84,1.41 280.61,1.41 280.61,37.97 254.78,11.53 254.78,36.34 250.01,36.34 "/>
    </g>
    <g>
     <path class="fil6" d="M321.53 2.42l0 8.76c-3.9,-2.32 -7.3,-3.48 -10.23,-3.48 -2.92,0 -5.26,1 -7.02,3.01 -1.75,2.01 -2.63,4.72 -2.63,8.12 0,3.21 0.93,5.78 2.77,7.71 1.84,1.93 4.31,2.89 7.4,2.89 2.7,0 5.94,-1.11 9.71,-3.31l0 8.76c-4.22,1.42 -7.74,2.13 -10.56,2.13 -4.84,0 -8.96,-1.78 -12.34,-5.33 -3.38,-3.56 -5.07,-7.9 -5.07,-13.02 0,-5.21 1.72,-9.62 5.17,-13.24 3.45,-3.61 7.64,-5.42 12.57,-5.42 3.18,0 6.59,0.8 10.23,2.42z"/>
     <path class="fil6" d="M326.2 18.5c0,-5.33 1.76,-9.72 5.28,-13.19 3.52,-3.46 7.69,-5.2 12.51,-5.2 5.35,0 9.75,1.74 13.25,5.22 3.49,3.49 5.24,7.89 5.24,13.21 0,5.29 -1.73,9.68 -5.19,13.17 -3.45,3.49 -7.81,5.24 -13.05,5.24 -5.25,0 -9.57,-1.74 -12.97,-5.21 -3.39,-3.47 -5.08,-7.89 -5.08,-13.24zm18.18 -11.2c-3.02,-0.05 -5.46,0.98 -7.31,3.13 -1.85,2.14 -2.78,4.9 -2.78,8.28 0,3.2 0.94,5.85 2.83,7.96 1.88,2.11 4.27,3.15 7.15,3.15 3.02,0 5.47,-1.04 7.33,-3.12 1.86,-2.07 2.79,-4.81 2.79,-8.21 0,-3.35 -0.91,-6.04 -2.73,-8.07 -1.83,-2.03 -4.25,-3.07 -7.28,-3.13z"/>
     <path class="fil6" d="M368.78 0.51l12.29 0c5.25,0 9.47,1.66 12.67,4.96 3.2,3.31 4.8,7.67 4.8,13.08 0,5.43 -1.65,9.78 -4.95,13.06 -3.3,3.27 -7.69,4.9 -13.18,4.9l-11.63 0 0 -36zm7.75 6.79l0 22.24 3.08 0c3.2,0 5.82,-0.87 7.88,-2.6 2.05,-1.74 3.08,-4.63 3.08,-8.7 0,-2.36 -0.5,-4.44 -1.49,-6.26 -0.99,-1.83 -2.42,-3.06 -4.31,-3.71 -1.88,-0.65 -3.68,-0.97 -5.38,-0.97l-2.86 0z"/>
     <path class="fil7" d="M404.66 0.51l20.27 0 0 7.13c-6.76,0 -13.52,0 -20.27,0l0 -7.13zm20.27 14.38l0 7.02 -12.52 0 0 7.47 12.52 0 0 7.13 -20.27 0 0 -21.6c6.76,-0.01 13.52,-0.02 20.27,-0.02z"/>
    </g>
    <path class="fil1" d="M192.96 54.16l-1.88 1.5c-0.5,-0.51 -0.95,-0.9 -1.35,-1.15 -0.4,-0.25 -0.98,-0.38 -1.75,-0.38 -0.83,0 -1.5,0.19 -2.02,0.56 -0.52,0.37 -0.78,0.86 -0.78,1.45 0,0.51 0.23,0.96 0.68,1.35 0.45,0.39 1.22,0.82 2.31,1.3 1.09,0.47 1.94,0.9 2.54,1.3 0.61,0.4 1.11,0.85 1.5,1.34 0.39,0.49 0.68,1 0.87,1.54 0.19,0.54 0.29,1.11 0.29,1.71 0,1.41 -0.51,2.61 -1.54,3.6 -1.03,1 -2.27,1.49 -3.73,1.49 -1.42,0 -2.67,-0.38 -3.76,-1.16 -1.09,-0.78 -1.92,-1.95 -2.51,-3.49l2.32 -0.66c0.84,1.91 2.13,2.86 3.86,2.86 0.84,0 1.54,-0.25 2.09,-0.75 0.56,-0.5 0.84,-1.14 0.84,-1.9 0,-0.46 -0.15,-0.92 -0.44,-1.38 -0.29,-0.46 -0.65,-0.84 -1.08,-1.14 -0.43,-0.3 -1.12,-0.65 -2.06,-1.05 -0.94,-0.4 -1.67,-0.76 -2.19,-1.08 -0.51,-0.32 -0.95,-0.7 -1.33,-1.15 -0.37,-0.45 -0.65,-0.89 -0.82,-1.34 -0.17,-0.44 -0.26,-0.92 -0.26,-1.42 0,-1.21 0.49,-2.25 1.46,-3.1 0.98,-0.85 2.16,-1.28 3.55,-1.28 0.93,0 1.86,0.2 2.81,0.6 0.94,0.4 1.74,1.01 2.37,1.82z"/>
    <path class="fil1" d="M203.1 60.64c0,-2.45 0.92,-4.54 2.77,-6.29 1.85,-1.75 4.07,-2.62 6.66,-2.62 2.53,0 4.71,0.88 6.54,2.64 1.83,1.76 2.74,3.84 2.74,6.27 0,2.56 -0.9,4.72 -2.71,6.49 -1.81,1.77 -4.02,2.65 -6.65,2.65 -2.59,0 -4.8,-0.89 -6.62,-2.67 -1.82,-1.78 -2.73,-3.94 -2.73,-6.47zm16.25 0.13c0,-1.87 -0.67,-3.44 -2.02,-4.72 -1.35,-1.28 -3.01,-1.92 -4.99,-1.92 -1.87,0 -3.48,0.65 -4.81,1.95 -1.34,1.3 -2,2.86 -2,4.68 0,1.85 0.69,3.41 2.06,4.69 1.37,1.28 3.05,1.92 5.04,1.92 1.83,0 3.41,-0.65 4.73,-1.96 1.33,-1.3 1.99,-2.86 1.99,-4.65z"/>
    <polygon class="fil1" points="231.54,52.28 233.86,52.28 233.86,66.92 239.37,66.92 239.37,69.24 231.54,69.24 "/>
    <path class="fil1" d="M249.11 52.28l2.32 0 0 10.42c0,1.54 0.37,2.74 1.11,3.58 0.74,0.84 1.79,1.26 3.15,1.26 1.35,0 2.4,-0.39 3.14,-1.16 0.75,-0.78 1.13,-1.87 1.13,-3.28l0 -10.82 2.32 0 0 10.66c0,2.08 -0.59,3.73 -1.78,4.98 -1.18,1.24 -2.76,1.86 -4.73,1.86 -2.01,0 -3.63,-0.63 -4.84,-1.89 -1.21,-1.26 -1.82,-3.12 -1.82,-5.58l0 -10.04z"/>
    <polygon class="fil1" points="272.01,52.28 282.42,52.28 282.42,54.6 278.36,54.6 278.36,69.24 276.05,69.24 276.05,54.6 272.01,54.6 "/>
    <polygon class="fil1" points="292.16,52.28 294.48,52.28 294.48,69.24 292.16,69.24 "/>
    <path class="fil1" d="M304.22 60.64c0,-2.45 0.92,-4.54 2.77,-6.29 1.85,-1.75 4.07,-2.62 6.66,-2.62 2.53,0 4.71,0.88 6.54,2.64 1.83,1.76 2.74,3.84 2.74,6.27 0,2.56 -0.91,4.72 -2.71,6.49 -1.81,1.77 -4.02,2.65 -6.65,2.65 -2.59,0 -4.8,-0.89 -6.61,-2.67 -1.82,-1.78 -2.73,-3.94 -2.73,-6.47zm16.25 0.13c0,-1.87 -0.67,-3.44 -2.02,-4.72 -1.35,-1.28 -3.01,-1.92 -4.98,-1.92 -1.87,0 -3.48,0.65 -4.81,1.95 -1.34,1.3 -2,2.86 -2,4.68 0,1.85 0.69,3.41 2.06,4.69 1.37,1.28 3.05,1.92 5.04,1.92 1.83,0 3.41,-0.65 4.74,-1.96 1.33,-1.3 1.99,-2.86 1.99,-4.65z"/>
    <polygon class="fil1" points="332.66,51.6 345.2,64.48 345.2,52.28 347.51,52.28 347.51,70.03 334.97,57.19 334.97,69.24 332.66,69.24 "/>
    <path class="fil1" d="M368.38 54.16l-1.88 1.5c-0.49,-0.51 -0.94,-0.9 -1.35,-1.15 -0.4,-0.25 -0.98,-0.38 -1.74,-0.38 -0.83,0 -1.5,0.19 -2.02,0.56 -0.52,0.37 -0.78,0.86 -0.78,1.45 0,0.51 0.23,0.96 0.68,1.35 0.46,0.39 1.22,0.82 2.31,1.3 1.08,0.47 1.94,0.9 2.54,1.3 0.61,0.4 1.1,0.85 1.49,1.34 0.39,0.49 0.68,1 0.87,1.54 0.19,0.54 0.29,1.11 0.29,1.71 0,1.41 -0.51,2.61 -1.54,3.6 -1.03,1 -2.27,1.49 -3.73,1.49 -1.42,0 -2.67,-0.38 -3.76,-1.16 -1.08,-0.78 -1.92,-1.95 -2.51,-3.49l2.32 -0.66c0.84,1.91 2.12,2.86 3.86,2.86 0.84,0 1.54,-0.25 2.09,-0.75 0.56,-0.5 0.84,-1.14 0.84,-1.9 0,-0.46 -0.14,-0.92 -0.44,-1.38 -0.29,-0.46 -0.65,-0.84 -1.08,-1.14 -0.43,-0.3 -1.12,-0.65 -2.06,-1.05 -0.95,-0.4 -1.67,-0.76 -2.19,-1.08 -0.51,-0.32 -0.95,-0.7 -1.33,-1.15 -0.37,-0.45 -0.65,-0.89 -0.82,-1.34 -0.17,-0.44 -0.26,-0.92 -0.26,-1.42 0,-1.21 0.49,-2.25 1.46,-3.1 0.98,-0.85 2.16,-1.28 3.55,-1.28 0.93,0 1.86,0.2 2.81,0.6 0.95,0.4 1.74,1.01 2.37,1.82z"/>
   </g>
  </g>
 </g>
</svg>
